<svg width="25" height="25" viewBox="0 0 25 25" fill="none" xmlns="http://www.w3.org/2000/svg">
<path fill-rule="evenodd" clip-rule="evenodd" d="M21.4726 10.4929H21.2648L19.138 5.32238C19.058 5.12767 18.8641 5 18.6485 5C18.5799 5 18.5137 5.01295 18.4526 5.03673L14.8067 6.45459C14.5018 6.04086 14.0507 5.73571 13.5273 5.61124C13.0773 5.5277 12.6367 5.57643 12.4727 5.61124C11.5013 5.84215 10.7781 6.69524 10.7781 7.71006C10.7781 7.81303 10.7861 7.91426 10.8005 8.01348L7.15568 9.43096L7.15554 9.4311C7.02426 9.48238 6.91659 9.58385 6.86193 9.7166L4.73512 14.8871H4.52734C4.23607 14.8871 4 15.1168 4 15.4C4 16.8943 5.2501 18.11 6.78668 18.11H7.91648C9.45305 18.11 10.7032 16.8943 10.7032 15.4C10.7032 15.1168 10.4671 14.8871 10.1758 14.8871H9.96791L8.03706 10.1928L11.1933 8.96539C11.4983 9.37913 11.9493 9.68429 12.4727 9.8086V17.9379H11.8703C10.3338 17.9379 9.09864 18.9904 9.09864 20.4849C9.09864 20.7682 9.33482 20.9977 9.62598 20.9977H16.4043C16.6954 20.9977 16.9316 20.8006 16.9316 20.6468V20.4844C16.9316 18.9904 15.6662 17.9379 14.1296 17.9379H13.5273V9.8086C14.4986 9.57783 15.2218 8.72474 15.2218 7.71006C15.2218 7.60697 15.2139 7.50574 15.1996 7.40651L17.7018 6.43336L16.0321 10.4929H15.8241C15.533 10.4929 15.2968 10.7225 15.2968 11.0057C15.2968 12.5 16.5469 13.7157 18.0836 13.7157H19.2133C20.7498 13.7157 22 12.5 22 11.0057C22 10.7225 21.7639 10.4929 21.4726 10.4929ZM6.78668 17.0843H7.91648C8.68745 17.0843 9.34252 16.5918 9.56622 15.9133C9.56545 15.9133 9.56474 15.9131 9.564 15.913C9.5633 15.9129 9.56256 15.9128 9.56182 15.9128H5.13681C5.36038 16.5916 6.01544 17.0843 6.78668 17.0843ZM5.87111 14.8871H8.83205L7.35151 11.2879L5.87111 14.8871ZM10.2353 19.9721H15.7949C15.5715 19.2934 14.901 18.9635 14.1298 18.9635H11.8703C11.0989 18.9635 10.4589 19.2934 10.2353 19.9721ZM11.8328 7.70993C11.8328 8.33586 12.3565 8.84494 13 8.84494C13.6436 8.84494 14.1672 8.33586 14.1672 7.70993C14.1672 7.08413 13.6435 6.57492 13 6.57492C12.3565 6.57492 11.8328 7.08413 11.8328 7.70993ZM20.1288 10.4929L18.6485 6.89369L17.1679 10.4929H20.1288ZM18.0836 12.69H19.2133C19.9844 12.69 20.6393 12.1975 20.863 11.519C20.8616 11.5188 20.8601 11.5187 20.8586 11.5185H16.4336C16.6572 12.1973 17.3124 12.69 18.0836 12.69Z" fill="black"/>
</svg>
