<svg width="25" height="25" viewBox="0 0 25 25" fill="none" xmlns="http://www.w3.org/2000/svg">
<path fill-rule="evenodd" clip-rule="evenodd" d="M11.5198 18.7978C12.3982 18.7978 13.1107 19.5142 13.1107 20.3971C13.1107 21.2805 12.3981 21.9965 11.5198 21.9965C10.6413 21.9965 9.92887 21.2805 9.92887 20.3971C9.92887 19.5142 10.6413 18.7978 11.5198 18.7978ZM11.1827 20.3971C11.1827 20.0957 11.5466 19.9449 11.7581 20.1577C11.8897 20.2898 11.8897 20.5046 11.7581 20.637C11.5467 20.8493 11.1827 20.6986 11.1827 20.3971Z" fill="black"/>
<path fill-rule="evenodd" clip-rule="evenodd" d="M18.9438 18.7978C19.8223 18.7978 20.5346 19.5142 20.5346 20.3971C20.5346 21.2805 19.8223 21.9965 18.9438 21.9965C18.0654 21.9965 17.3529 21.2805 17.3529 20.3971C17.3529 19.5142 18.0654 18.7978 18.9438 18.7978ZM18.6066 20.3971C18.6066 20.0957 18.9707 19.9449 19.1822 20.1577C19.3139 20.2898 19.3139 20.5046 19.1822 20.637C18.9707 20.8493 18.6066 20.6986 18.6066 20.3971Z" fill="black"/>
<path fill-rule="evenodd" clip-rule="evenodd" d="M17.1481 15.295C19.1919 15.0262 20.8775 13.6419 21.5479 11.7263C22.3945 9.72406 21.9065 8.7771 21.3247 8.50945L15.0395 7.69299L6.80859 6.48555L6.03994 5.92614C6.14797 5.49008 6.05694 5.0375 5.82289 4.68685C5.34838 3.97639 4.3906 3.78565 3.68329 4.263C2.97649 4.74001 2.78676 5.70306 3.26167 6.41411C3.7029 7.07495 4.56851 7.29518 5.26843 6.91833L6.05302 7.48936L9.28802 15.4955C9.18016 15.6198 9.08814 15.7612 9.01414 15.9184C8.45258 17.1138 9.3336 18.4695 10.6406 18.4695H20.4641C20.8103 18.4695 21.0909 18.1874 21.0909 17.8392C21.0909 17.4912 20.8103 17.209 20.4641 17.209H10.6406C10.4402 17.209 10.2797 17.123 10.1742 16.9541C9.98123 16.6447 10.1542 16.2504 10.4913 16.1705L17.1481 15.295ZM15.3563 9.02262L11.9371 8.50945L12.5568 10.6593L15.7097 10.7474L15.5676 9.92642C15.5676 9.92642 15.4457 9.35253 15.3563 9.02262ZM4.78481 5.38611C4.64595 5.1781 4.3083 5.22983 4.25685 5.49311C4.20472 5.76034 4.49845 5.93415 4.70587 5.7943C4.83769 5.70533 4.8728 5.51805 4.78481 5.38611ZM11.7759 14.7381C11.9873 14.7086 12.1979 14.6792 12.4067 14.6516L11.6107 11.8892L9.15467 11.8206L10.4044 14.9131C10.8567 14.8664 11.3179 14.802 11.7758 14.7381H11.7758L11.7759 14.7381ZM12.9217 11.9258L13.6601 14.487L16.2967 14.1402L15.928 12.0098L12.9217 11.9258ZM8.64112 10.5497L11.2455 10.6225L10.5791 8.3102L7.55713 7.86671L8.64112 10.5497ZM16.7518 9.16291L16.9557 10.7474C16.9557 10.7474 19.1241 10.8895 19.8433 10.8895C20.1975 10.4435 20.5969 9.52118 19.7467 9.44348C19.4962 9.42058 19.1893 9.39559 18.8645 9.36911C18.0867 9.30572 17.2061 9.23396 16.7518 9.16291ZM17.533 13.9406L17.1481 12.0098L19.9399 12.0649C19.3889 12.894 18.5182 13.6757 17.533 13.9406Z" fill="black"/>
</svg>
